<svg xmlns="http://www.w3.org/2000/svg" width="1255" height="836" viewBox="0 0 1255 836">
<g>
<path d="M 391.94 543.67 C388.88,546.05 386.12,548.00 385.81,548.00 C382.77,548.00 368.05,512.41 368.02,505.00 C368.00,501.67 376.86,487.57 391.70,467.27 C394.61,463.29 405.18,448.44 415.18,434.27 C430.46,412.62 439.42,400.25 452.33,382.95 L 454.15 380.50 L 452.58 383.25 C451.71,384.76 450.30,387.09 449.44,388.41 C447.98,390.67 448.02,390.87 449.90,391.47 C451.02,391.82 452.81,391.64 453.90,391.06 C457.63,389.06 460.84,389.78 462.50,393.00 C464.31,396.51 467.90,397.08 468.71,394.00 C469.43,391.24 471.66,391.49 472.39,394.42 C472.82,396.13 473.95,397.05 476.25,397.55 C478.04,397.94 480.39,398.87 481.47,399.63 C482.56,400.38 484.08,401.00 484.86,401.00 C486.89,401.00 489.04,404.24 487.92,405.60 C487.34,406.30 487.69,407.48 488.88,408.86 L 490.76 411.03 L 491.31 408.91 C492.01,406.23 494.18,407.41 493.95,410.35 C493.86,411.53 493.83,413.06 493.89,413.75 C494.02,415.23 499.61,415.45 500.50,414.00 C500.84,413.45 500.68,413.00 500.15,413.00 C498.77,413.00 499.91,409.35 501.32,409.25 C501.97,409.20 503.44,408.94 504.59,408.67 C506.86,408.13 507.78,408.59 509.87,411.25 C511.06,412.76 511.02,413.00 509.62,413.00 C508.73,413.00 507.99,412.21 507.97,411.25 C507.94,409.81 507.56,409.95 505.85,412.00 C504.71,413.38 503.50,414.35 503.16,414.17 C502.83,414.00 502.41,414.28 502.23,414.81 C501.90,415.80 507.37,415.77 510.00,414.75 C514.75,412.93 515.95,413.27 520.95,417.86 C523.73,420.41 526.02,423.18 526.04,424.00 C526.09,425.80 532.37,430.00 535.01,430.00 C536.04,430.00 537.16,430.45 537.50,431.00 C537.86,431.58 543.34,432.00 550.56,432.00 C558.19,432.00 563.00,432.39 563.00,433.00 C563.00,433.65 551.23,434.01 529.75,434.03 L 496.50 434.06 L 486.53 448.43 C481.05,456.33 476.42,463.23 476.25,463.75 C475.67,465.48 487.74,466.00 530.90,466.10 C554.33,466.15 572.38,466.56 571.00,467.00 C569.62,467.44 569.17,467.85 570.00,467.92 C571.11,468.00 571.18,468.23 570.27,468.81 C569.46,469.33 570.83,470.49 574.27,472.22 C584.91,477.57 587.29,478.20 594.09,477.53 C606.20,476.34 608.51,476.29 612.22,477.18 C614.26,477.66 616.40,478.83 616.97,479.78 C617.94,481.40 618.06,481.40 619.04,479.76 C619.87,478.39 620.95,478.15 624.29,478.61 C633.24,479.84 636.00,479.79 636.00,478.37 C636.00,477.62 637.01,476.93 638.25,476.85 C639.49,476.76 641.17,476.62 642.00,476.54 C642.83,476.45 644.11,476.83 644.85,477.39 C645.59,477.95 646.72,478.50 647.35,478.60 C647.98,478.71 649.70,479.10 651.16,479.48 C653.31,480.04 653.94,479.77 654.48,478.07 C654.84,476.92 656.42,475.32 657.98,474.51 C659.55,473.70 661.79,471.81 662.97,470.31 C665.01,467.72 665.03,467.53 663.31,466.86 C662.11,466.38 662.90,466.12 665.64,466.07 C669.66,466.00 669.79,466.10 670.20,469.58 C670.43,471.54 670.42,479.64 670.18,487.58 L 669.75 502.00 L 591.62 502.01 C511.15,502.02 501.93,502.38 479.50,506.40 C444.80,512.61 416.20,524.78 391.94,543.67 ZM 740.50 437.95 L 740.50 501.50 L 717.93 501.77 C705.52,501.92 695.06,501.73 694.68,501.35 C693.85,500.51 693.76,419.57 694.60,418.74 C695.57,417.76 698.00,419.10 698.00,420.61 C698.00,421.37 698.56,422.00 699.25,422.00 C700.94,421.99 707.00,416.22 707.00,414.62 C707.00,413.92 708.12,412.29 709.50,411.00 C710.88,409.71 712.00,408.04 712.00,407.29 C712.00,406.54 713.68,404.94 715.73,403.73 L 719.46 401.53 L 716.73 400.57 C715.23,400.05 714.00,399.25 714.00,398.81 C714.00,398.36 711.86,397.90 709.25,397.77 C709.13,397.77 709.07,397.76 709.07,397.75 C709.07,397.62 734.26,397.30 767.09,397.02 L 829.67 396.50 L 833.76 393.67 C838.78,390.19 841.00,385.76 841.00,379.25 C841.00,373.15 838.10,368.43 832.46,365.32 C828.58,363.18 827.50,363.13 777.60,362.58 C749.60,362.28 726.46,361.79 726.18,361.51 C725.90,361.23 731.54,361.00 738.71,361.00 C747.93,361.00 752.06,360.63 752.79,359.75 C753.36,359.06 754.13,352.22 754.49,344.53 C754.85,336.85 755.37,330.22 755.63,329.78 C755.90,329.35 755.30,328.99 754.31,328.98 C752.81,328.97 752.75,328.81 753.97,328.04 C754.99,327.39 753.63,327.00 749.47,326.75 C746.19,326.54 762.93,326.29 786.69,326.19 C834.43,325.98 837.69,326.29 849.38,332.19 C870.60,342.89 882.02,360.85 881.99,383.46 C881.98,387.88 881.36,393.81 880.61,396.63 C877.01,410.13 866.05,423.71 853.50,430.20 C839.73,437.33 839.82,437.32 787.50,437.65 ZM 663.50 667.53 C652.13,669.07 614.94,670.26 605.00,669.40 C561.71,665.65 530.06,657.83 495.64,642.38 C484.18,637.23 466.75,627.95 460.78,623.80 L 458.06 621.91 L 460.08 616.70 C464.10,606.29 473.78,591.68 483.99,580.60 C488.72,575.45 502.64,564.00 504.15,564.00 C504.64,564.00 509.42,566.20 514.77,568.88 C520.12,571.56 529.75,575.67 536.17,578.01 C544.55,581.07 547.69,582.65 547.31,583.63 C547.02,584.38 546.35,585.00 545.83,585.00 C545.29,585.00 545.18,585.98 545.57,587.22 C545.96,588.44 546.35,591.59 546.45,594.22 C546.57,597.65 547.16,599.40 548.55,600.41 C549.61,601.19 550.78,601.64 551.15,601.41 C551.52,601.18 552.99,602.39 554.43,604.09 C556.75,606.86 558.27,607.44 568.58,609.54 C587.17,613.31 598.19,614.32 620.50,614.29 C642.37,614.25 657.44,612.79 676.38,608.87 C685.40,607.00 686.39,606.96 687.84,608.41 C689.29,609.86 689.29,610.14 687.80,611.62 C685.20,614.22 672.90,618.77 653.00,624.47 C642.83,627.39 633.01,630.09 631.18,630.48 C629.36,630.87 627.62,631.83 627.32,632.62 C627.01,633.41 628.12,636.85 629.77,640.27 C631.42,643.70 633.30,648.74 633.95,651.49 C635.92,659.86 636.22,660.00 652.56,660.00 C673.08,660.00 697.96,656.11 719.54,649.53 C726.12,647.52 732.62,645.72 734.00,645.51 C735.38,645.31 738.39,644.21 740.70,643.07 C745.29,640.81 747.56,640.48 748.47,641.96 C749.35,643.37 745.70,645.42 734.09,650.01 C714.42,657.81 689.33,664.03 663.50,667.53 ZM 848.52 567.00 C841.68,575.50 822.40,595.33 827.61,588.50 C829.71,585.75 832.57,582.50 833.97,581.29 C835.36,580.07 835.92,579.06 835.21,579.04 C834.23,579.01 834.19,578.52 835.03,576.94 C835.66,575.77 835.83,573.52 835.44,571.74 C834.29,566.47 829.50,558.58 826.60,557.17 C825.10,556.43 821.54,553.36 818.69,550.35 C814.44,545.85 813.01,544.93 810.80,545.25 L 808.10 545.64 L 809.80 542.69 C810.74,541.07 813.33,537.66 815.56,535.12 C821.20,528.71 823.00,525.89 823.00,523.48 C823.00,520.93 813.60,510.86 809.50,509.02 C805.06,507.02 803.71,506.95 801.87,508.62 C800.96,509.44 803.88,504.57 808.36,497.80 C812.85,491.02 818.95,480.24 821.93,473.85 L 827.34 462.22 L 833.08 461.57 C842.06,460.55 852.71,457.25 861.47,452.75 C873.28,446.70 885.85,433.81 892.27,421.19 C894.87,416.07 897.00,411.23 897.00,410.44 C897.00,409.65 897.45,409.00 898.00,409.00 L 898.07 409.00 C898.22,409.00 898.36,409.00 898.47,409.05 C899.17,409.35 899.04,411.59 898.06,427.88 L 897.99 429.00 C896.84,448.26 895.72,457.22 892.53,473.01 C885.85,505.99 869.50,540.93 848.52,567.00 ZM 377.56 442.77 C369.42,453.91 362.39,463.26 361.93,463.54 C360.23,464.60 359.51,455.87 359.53,434.50 C359.54,418.36 360.03,409.44 361.34,401.01 C363.88,384.76 368.40,365.34 372.62,352.50 C376.59,340.44 386.00,317.66 386.71,318.38 C386.96,318.63 386.65,319.79 386.02,320.97 C385.39,322.15 384.64,325.77 384.36,329.02 C383.88,334.69 383.96,334.95 386.39,335.56 C387.79,335.91 388.90,336.49 388.85,336.85 C388.45,339.93 389.17,340.54 392.81,340.19 C395.41,339.94 397.03,340.33 397.93,341.41 C398.65,342.29 400.29,343.00 401.56,343.00 C404.40,343.00 405.58,344.56 403.38,345.41 C400.76,346.41 403.80,349.27 406.87,348.68 C409.27,348.22 414.12,350.79 416.50,353.79 C417.33,354.83 418.43,354.74 422.23,353.34 C426.91,351.60 426.95,351.60 429.43,353.93 C432.95,357.24 438.54,356.32 442.00,351.86 C446.75,345.74 448.18,344.52 444.60,349.63 C442.62,352.46 441.00,355.05 441.00,355.39 C441.00,355.93 422.46,381.57 399.71,412.50 C395.66,418.00 385.69,431.62 377.56,442.77 ZM 441.88 601.44 C440.19,605.05 438.52,607.99 438.16,607.98 C435.33,607.87 399.98,573.29 400.01,570.67 C400.05,567.27 425.44,549.88 442.50,541.56 C453.54,536.18 471.47,529.64 478.00,528.62 L 481.50 528.07 L 478.34 529.16 C472.11,531.29 473.70,537.60 481.33,541.06 C486.40,543.36 492.09,543.52 496.05,541.47 C497.74,540.60 499.00,540.39 499.00,540.97 C499.00,541.54 498.53,542.00 497.96,542.00 C497.38,542.00 496.37,542.45 495.71,542.99 C495.04,543.54 490.67,546.75 486.00,550.13 C466.37,564.34 450.74,582.51 441.88,601.44 ZM 668.99 361.21 C669.00,362.15 640.24,362.63 622.50,362.00 L 608.50 361.50 L 622.50 360.76 C639.38,359.87 643.32,359.84 652.84,360.59 C660.73,361.21 666.51,359.77 665.60,357.41 C665.29,356.59 665.63,356.31 666.51,356.64 C667.78,357.13 668.96,359.30 668.99,361.21 Z" fill="rgb(29,40,122)"/>
<path d="M 831.51 585.58 C821.34,595.85 809.79,606.72 804.00,611.13 C782.20,627.70 758.94,640.64 733.59,650.21 C733.76,650.15 733.93,650.08 734.09,650.01 C745.70,645.42 749.35,643.37 748.47,641.96 C747.56,640.48 745.29,640.81 740.70,643.07 C738.39,644.21 735.38,645.31 734.00,645.51 C732.62,645.72 726.12,647.52 719.54,649.53 C697.96,656.11 673.08,660.00 652.56,660.00 C636.22,660.00 635.92,659.86 633.95,651.49 C633.30,648.74 631.42,643.70 629.77,640.27 C628.12,636.85 627.01,633.41 627.32,632.62 C627.62,631.83 629.36,630.87 631.18,630.48 C633.01,630.09 642.83,627.39 653.00,624.47 C672.90,618.77 685.20,614.22 687.80,611.62 C689.29,610.14 689.29,609.86 687.84,608.41 C686.39,606.96 685.40,607.00 676.38,608.87 C657.44,612.79 642.37,614.25 620.50,614.29 C598.19,614.32 587.17,613.31 568.58,609.54 C558.27,607.44 556.75,606.86 554.43,604.09 C552.99,602.39 551.52,601.18 551.15,601.41 C550.78,601.64 549.61,601.19 548.55,600.41 C547.16,599.40 546.57,597.65 546.45,594.22 C546.35,591.59 545.96,588.44 545.57,587.22 C545.18,585.98 545.29,585.00 545.83,585.00 C546.35,585.00 547.02,584.38 547.31,583.63 C547.69,582.65 544.55,581.07 536.17,578.01 C533.86,577.17 531.15,576.10 528.36,574.95 C544.32,581.32 562.72,586.22 583.50,589.65 C598.81,592.18 638.48,592.17 655.00,589.62 C694.16,583.60 730.15,569.58 757.50,549.69 C771.57,539.46 798.00,514.97 798.00,512.17 C798.00,511.66 798.73,510.64 799.61,509.91 C800.77,508.94 803.08,505.82 805.84,501.67 C802.85,506.32 801.14,509.27 801.87,508.62 C803.71,506.95 805.06,507.02 809.50,509.02 C813.60,510.86 823.00,520.93 823.00,523.48 C823.00,525.89 821.20,528.71 815.56,535.12 C813.33,537.66 810.74,541.07 809.80,542.69 L 808.10 545.64 L 810.80 545.25 C813.01,544.93 814.44,545.85 818.69,550.35 C821.54,553.36 825.10,556.43 826.60,557.17 C829.50,558.58 834.29,566.47 835.44,571.74 C835.83,573.52 835.66,575.77 835.03,576.94 C834.19,578.52 834.23,579.01 835.21,579.04 C835.92,579.06 835.36,580.07 833.97,581.29 C832.57,582.50 829.71,585.75 827.61,588.50 C825.38,591.43 827.65,589.46 831.51,585.58 ZM 888.00 334.10 C888.00,336.07 886.21,334.64 879.62,327.41 C868.02,314.70 853.83,305.91 838.59,302.03 C834.69,301.03 825.75,299.89 818.73,299.49 L 805.95 298.76 L 799.23 293.12 C789.39,284.88 778.14,277.26 764.00,269.25 C749.66,261.13 739.48,256.75 722.54,251.43 C715.95,249.37 709.19,246.86 707.50,245.87 C705.81,244.87 703.54,243.92 702.45,243.75 C701.37,243.59 699.40,242.69 698.07,241.76 C695.96,240.28 695.87,239.99 697.35,239.42 C698.69,238.90 698.80,238.47 697.88,237.35 C696.23,235.37 698.26,231.23 701.49,230.00 C703.03,229.42 704.00,228.27 704.00,227.02 C704.00,225.91 704.92,224.08 706.05,222.95 C707.51,221.49 707.89,220.26 707.38,218.70 C706.99,217.49 706.59,215.60 706.50,214.50 C706.41,213.40 705.63,212.36 704.78,212.20 C702.79,211.81 702.94,207.27 704.93,207.40 C706.70,207.52 706.76,202.79 705.11,195.07 C704.34,191.48 704.28,189.32 704.94,188.66 C706.55,187.05 723.23,190.52 737.74,195.49 C753.40,200.84 768.78,207.20 782.85,214.13 C791.99,218.64 793.50,219.10 795.74,218.07 C797.90,217.09 798.61,217.22 800.46,218.97 C801.67,220.10 802.94,220.73 803.29,220.37 C805.16,218.51 836.49,247.74 848.41,262.45 C862.47,279.80 876.87,304.38 884.40,323.87 C886.38,329.00 888.00,333.61 888.00,334.10 ZM 514.20 413.72 C514.56,413.47 514.57,413.04 514.30,412.34 C513.90,411.29 514.06,410.92 514.73,411.33 C515.31,411.69 516.07,411.26 516.41,410.37 C516.87,409.17 517.81,408.91 520.07,409.36 C521.73,409.70 522.86,409.57 522.56,409.09 C521.89,408.01 526.65,406.60 529.86,406.93 C531.16,407.06 532.00,406.80 531.73,406.34 C531.46,405.88 531.62,404.49 532.09,403.25 C532.69,401.65 533.75,401.00 535.75,401.00 C537.32,401.00 539.31,400.12 540.27,399.00 C541.95,397.04 543.22,397.00 606.01,397.00 L 670.05 397.00 L 669.77 415.25 L 669.50 433.50 L 583.00 433.79 L 547.70 433.90 C557.69,433.74 563.00,433.43 563.00,433.00 C563.00,432.39 558.19,432.00 550.56,432.00 C543.34,432.00 537.86,431.58 537.50,431.00 C537.16,430.45 536.04,430.00 535.01,430.00 C532.37,430.00 526.09,425.80 526.04,424.00 C526.02,423.18 523.73,420.41 520.95,417.86 C517.80,414.97 516.17,413.76 514.20,413.72 ZM 667.10 356.99 C666.91,356.84 666.71,356.72 666.51,356.64 C665.63,356.31 665.29,356.59 665.60,357.41 C666.51,359.77 660.73,361.21 652.84,360.59 C643.32,359.84 639.38,359.87 622.50,360.76 L 608.50 361.50 L 622.50 362.00 C630.11,362.27 639.74,362.34 648.27,362.25 C639.56,362.38 628.90,362.39 617.76,362.23 L 599.03 361.96 L 597.40 358.81 C596.51,357.09 595.57,353.10 595.32,349.96 C594.90,344.70 595.07,344.09 597.55,342.14 C599.03,340.98 600.61,340.26 601.07,340.54 C601.53,340.82 602.44,340.05 603.09,338.83 C603.98,337.17 603.99,336.50 603.14,336.21 C602.51,336.00 602.00,334.11 602.00,332.00 C602.00,328.38 602.25,328.07 606.50,326.45 C608.97,325.50 611.00,324.38 611.00,323.94 C611.00,323.51 612.36,322.86 614.02,322.49 C616.21,322.02 617.60,320.75 619.02,317.96 C620.11,315.82 621.00,313.40 621.00,312.56 C621.00,311.73 622.10,310.33 623.44,309.45 C624.78,308.57 626.16,306.57 626.50,304.99 L 627.13 302.13 L 631.14 303.55 C636.21,305.34 637.47,306.85 646.14,321.50 C650.04,328.10 656.78,339.47 661.12,346.77 C663.46,350.70 665.60,354.37 667.10,356.99 ZM 814.75 326.21 C807.59,326.12 798.50,326.14 786.69,326.19 C762.93,326.29 746.19,326.54 749.47,326.75 C753.63,327.00 754.99,327.39 753.97,328.04 C752.75,328.81 752.81,328.97 754.31,328.98 C755.30,328.99 755.90,329.35 755.63,329.78 C755.37,330.22 754.85,336.85 754.49,344.53 C754.13,352.22 753.36,359.06 752.79,359.75 C752.06,360.63 747.93,361.00 738.71,361.00 C731.54,361.00 725.90,361.23 726.18,361.51 C726.46,361.79 749.60,362.28 777.60,362.58 C815.90,363.00 825.44,363.13 829.56,364.13 C825.08,363.08 813.64,362.96 763.98,362.46 C722.00,362.05 699.06,361.46 698.25,360.79 C697.56,360.22 697.00,359.24 697.00,358.61 C697.00,357.98 695.93,355.89 694.62,353.96 C693.31,352.04 691.98,348.56 691.65,346.23 C691.13,342.49 691.42,341.59 694.17,338.45 C695.89,336.50 698.75,334.30 700.53,333.55 C702.31,332.81 704.59,330.80 705.60,329.10 L 707.43 326.00 L 768.65 326.00 C789.68,326.00 804.27,326.01 814.75,326.21 ZM 476.87 464.44 C480.82,465.92 504.23,466.08 580.45,465.46 L 669.76 464.73 L 670.18 469.11 C670.22,469.45 670.24,469.89 670.27,470.44 C670.25,470.08 670.22,469.79 670.20,469.58 C669.79,466.10 669.66,466.00 665.64,466.07 C662.90,466.12 662.11,466.38 663.31,466.86 C665.03,467.53 665.01,467.72 662.97,470.31 C661.79,471.81 659.55,473.70 657.98,474.51 C656.42,475.32 654.84,476.92 654.48,478.07 C653.94,479.77 653.31,480.04 651.16,479.48 C649.70,479.10 647.98,478.71 647.35,478.60 C646.72,478.50 645.59,477.95 644.85,477.39 C644.11,476.83 642.83,476.45 642.00,476.54 C641.17,476.62 639.49,476.76 638.25,476.85 C637.01,476.93 636.00,477.62 636.00,478.37 C636.00,479.79 633.24,479.84 624.29,478.61 C620.95,478.15 619.87,478.39 619.04,479.76 C618.06,481.40 617.94,481.40 616.97,479.78 C616.40,478.83 614.26,477.66 612.22,477.18 C608.51,476.29 606.20,476.34 594.09,477.53 C587.29,478.20 584.91,477.57 574.27,472.22 C570.83,470.49 569.46,469.33 570.27,468.81 C571.18,468.23 571.11,468.00 570.00,467.92 C569.17,467.85 569.62,467.44 571.00,467.00 C572.38,466.56 554.33,466.15 530.90,466.10 C494.05,466.01 479.87,465.62 476.87,464.44 ZM 488.53 548.29 C492.16,545.66 495.17,543.44 495.71,542.99 C496.37,542.45 497.38,542.00 497.96,542.00 C498.53,542.00 499.00,541.54 499.00,540.97 C499.00,540.39 497.74,540.60 496.05,541.47 C492.09,543.52 486.40,543.36 481.33,541.06 C473.70,537.60 472.11,531.29 478.34,529.16 L 481.50 528.07 L 478.00 528.62 C477.34,528.72 476.56,528.88 475.69,529.09 C486.12,526.21 497.04,524.05 508.50,522.61 C534.76,519.30 558.30,519.55 544.78,523.00 C524.08,528.27 504.94,537.00 488.53,548.29 ZM 761.84 396.78 L 829.67 396.50 L 767.09 397.02 C734.26,397.30 709.07,397.62 709.07,397.75 C709.07,397.76 709.13,397.77 709.25,397.77 C711.86,397.90 714.00,398.36 714.00,398.81 C714.00,399.25 715.23,400.05 716.73,400.57 L 719.46 401.53 L 715.73 403.73 C713.68,404.94 712.00,406.54 712.00,407.29 C712.00,408.04 710.88,409.71 709.50,411.00 C708.12,412.29 707.00,413.92 707.00,414.62 C707.00,416.22 700.94,421.99 699.25,422.00 C698.56,422.00 698.00,421.37 698.00,420.61 C698.00,419.10 695.57,417.76 694.60,418.74 C694.19,419.14 694.00,438.43 694.01,458.27 C694.00,455.21 694.00,452.07 694.00,448.86 L 694.00 397.05 ZM 464.99 532.37 C457.54,534.96 448.88,538.45 442.50,541.56 C433.73,545.84 422.76,552.51 414.17,558.45 C416.71,556.62 419.42,554.76 422.12,553.01 C435.40,544.40 449.64,537.53 464.99,532.37 ZM 848.52 567.00 C861.42,550.96 872.58,531.57 880.81,511.35 C872.66,531.62 861.73,550.47 848.19,567.50 C845.13,571.35 839.56,577.36 833.28,583.78 C838.34,578.59 845.04,571.33 848.52,567.00 ZM 807.92 498.46 C813.02,490.49 818.93,480.27 821.93,473.85 C818.95,480.24 812.85,491.02 808.36,497.80 C808.21,498.02 808.07,498.24 807.92,498.46 ZM 892.57 472.81 C894.42,463.66 895.56,456.80 896.43,448.86 C896.24,450.86 896.07,452.46 895.93,453.50 C895.05,460.03 893.93,466.47 892.57,472.81 ZM 898.00 428.85 L 898.06 427.88 C898.80,415.59 899.05,411.30 898.83,409.80 C898.94,410.07 898.99,410.40 898.99,410.75 C898.98,413.50 898.55,420.89 898.00,428.85 ZM 509.17 415.02 C509.34,414.94 509.49,414.85 509.59,414.75 C509.95,414.39 511.05,414.08 512.17,414.01 C511.53,414.19 510.82,414.44 510.00,414.75 C509.75,414.85 509.46,414.94 509.17,415.02 ZM 669.26 360.95 C669.27,361.02 669.18,361.09 668.99,361.16 C668.98,360.82 668.93,360.48 668.86,360.14 C669.09,360.58 669.23,360.86 669.26,360.95 ZM 839.42 328.18 C843.14,329.09 845.78,330.37 849.38,332.19 C845.78,330.37 842.97,329.08 839.42,328.18 ZM 500.00 434.06 L 496.50 434.07 L 486.53 448.43 C481.09,456.28 476.48,463.15 476.24,463.77 C476.25,463.76 476.25,463.76 476.25,463.75 C476.42,463.23 481.05,456.33 486.53,448.43 L 496.50 434.06 ZM 510.29 566.68 C506.98,565.10 504.51,564.00 504.16,564.00 C504.51,564.00 507.00,565.10 510.29,566.68 Z" fill="rgb(44,102,185)"/>
<path d="M 514.20 413.72 C513.58,413.71 512.92,413.81 512.17,414.01 C511.05,414.08 509.95,414.39 509.59,414.75 C509.49,414.85 509.34,414.94 509.17,415.02 C506.37,415.76 501.93,415.71 502.23,414.81 C502.41,414.28 502.83,414.00 503.16,414.17 C503.50,414.35 504.71,413.38 505.85,412.00 C507.56,409.95 507.94,409.81 507.97,411.25 C507.99,412.21 508.73,413.00 509.62,413.00 C511.02,413.00 511.06,412.76 509.87,411.25 C507.78,408.59 506.86,408.13 504.59,408.67 C503.44,408.94 501.97,409.20 501.32,409.25 C499.91,409.35 498.77,413.00 500.15,413.00 C500.68,413.00 500.84,413.45 500.50,414.00 C499.61,415.45 494.02,415.23 493.89,413.75 C493.83,413.06 493.86,411.53 493.95,410.35 C494.18,407.41 492.01,406.23 491.31,408.91 L 490.76 411.03 L 488.88 408.86 C487.69,407.48 487.34,406.30 487.92,405.60 C489.04,404.24 486.89,401.00 484.86,401.00 C484.08,401.00 482.56,400.38 481.47,399.63 C480.39,398.87 478.04,397.94 476.25,397.55 C473.95,397.05 472.82,396.13 472.39,394.42 C471.66,391.49 469.43,391.24 468.71,394.00 C467.90,397.08 464.31,396.51 462.50,393.00 C460.84,389.78 457.63,389.06 453.90,391.06 C452.81,391.64 451.02,391.82 449.90,391.47 C448.02,390.87 447.98,390.67 449.44,388.41 C450.30,387.09 451.71,384.76 452.58,383.25 L 454.15 380.50 L 452.33 382.95 C445.04,392.71 439.01,400.91 432.40,410.09 C439.15,400.55 444.39,393.10 446.44,390.10 C449.22,386.04 452.71,381.40 454.20,379.81 C455.68,378.21 456.90,376.59 456.91,376.20 C456.94,375.41 462.99,366.68 473.68,352.00 C480.63,342.46 542.76,255.70 548.61,247.38 C550.20,245.11 554.63,238.81 558.45,233.38 C566.65,221.71 568.00,217.47 568.00,203.30 C568.00,193.65 566.15,185.00 564.09,185.00 C563.71,185.00 562.07,187.12 560.45,189.70 C558.83,192.29 550.57,204.10 542.11,215.95 C533.64,227.80 522.21,243.80 516.71,251.50 C511.20,259.20 498.99,276.08 489.56,289.00 C480.13,301.92 466.55,320.60 459.37,330.50 C451.36,341.56 442.05,354.39 433.13,366.66 C438.08,359.77 441.00,355.60 441.00,355.39 C441.00,355.05 442.62,352.46 444.60,349.63 C448.18,344.52 446.75,345.74 442.00,351.86 C438.54,356.32 432.95,357.24 429.43,353.93 C426.95,351.60 426.91,351.60 422.23,353.34 C418.43,354.74 417.33,354.83 416.50,353.79 C414.12,350.79 409.27,348.22 406.87,348.68 C403.80,349.27 400.76,346.41 403.38,345.41 C405.58,344.56 404.40,343.00 401.56,343.00 C400.29,343.00 398.65,342.29 397.93,341.41 C397.03,340.33 395.41,339.94 392.81,340.19 C389.17,340.54 388.45,339.93 388.85,336.85 C388.90,336.49 387.79,335.91 386.39,335.56 C383.96,334.95 383.88,334.69 384.36,329.02 C384.64,325.77 385.39,322.15 386.02,320.97 C386.65,319.79 386.96,318.63 386.71,318.38 C386.18,317.85 380.87,330.24 376.54,341.60 C378.46,336.29 380.56,330.86 382.87,325.23 C404.62,272.13 452.41,220.29 503.64,194.24 C525.42,183.16 538.91,178.06 559.79,173.01 C560.21,172.90 560.62,172.80 561.02,172.71 C566.97,171.26 569.53,170.64 570.85,171.65 C571.93,172.47 572.18,174.40 572.77,177.87 C574.69,189.04 578.81,200.82 584.73,212.00 C589.90,221.77 597.00,234.45 629.22,291.50 C637.71,306.53 646.21,321.39 652.97,333.03 C650.43,328.75 647.97,324.60 646.14,321.50 C637.47,306.85 636.21,305.34 631.14,303.55 L 627.13 302.13 L 626.50 304.99 C626.16,306.57 624.78,308.57 623.44,309.45 C622.10,310.33 621.00,311.73 621.00,312.56 C621.00,313.40 620.11,315.82 619.02,317.96 C617.60,320.75 616.21,322.02 614.02,322.49 C612.36,322.86 611.00,323.51 611.00,323.94 C611.00,324.38 608.97,325.50 606.50,326.45 C602.25,328.07 602.00,328.38 602.00,332.00 C602.00,334.11 602.51,336.00 603.14,336.21 C603.99,336.50 603.98,337.17 603.09,338.83 C602.44,340.05 601.53,340.82 601.07,340.54 C600.61,340.26 599.03,340.98 597.55,342.14 C595.07,344.09 594.90,344.70 595.32,349.96 C595.57,353.10 596.51,357.09 597.40,358.81 L 597.86 359.70 L 596.29 357.25 C591.67,350.05 580.03,331.07 577.17,326.07 C574.94,322.19 574.50,321.86 573.56,323.40 C572.98,324.36 568.63,330.63 563.90,337.32 C559.16,344.02 548.00,359.85 539.08,372.50 L 522.87 395.50 L 533.69 396.12 C539.63,396.47 572.75,396.80 607.27,396.87 L 670.05 397.00 L 606.01 397.00 C543.22,397.00 541.95,397.04 540.27,399.00 C539.31,400.12 537.32,401.00 535.75,401.00 C533.75,401.00 532.69,401.65 532.09,403.25 C531.62,404.49 531.46,405.88 531.73,406.34 C532.00,406.80 531.16,407.06 529.86,406.93 C526.65,406.60 521.89,408.01 522.56,409.09 C522.86,409.57 521.73,409.70 520.07,409.36 C517.81,408.91 516.87,409.17 516.41,410.37 C516.07,411.26 515.31,411.69 514.73,411.33 C514.06,410.92 513.90,411.29 514.30,412.34 C514.57,413.04 514.56,413.47 514.20,413.72 ZM 804.23 220.47 C803.76,220.27 803.44,220.23 803.29,220.37 C802.94,220.73 801.67,220.10 800.46,218.97 C798.61,217.22 797.90,217.09 795.74,218.07 C793.50,219.10 791.99,218.64 782.85,214.13 C768.78,207.20 753.40,200.84 737.74,195.49 C723.23,190.52 706.55,187.05 704.94,188.66 C704.28,189.32 704.34,191.48 705.11,195.07 C706.76,202.79 706.70,207.52 704.93,207.40 C702.94,207.27 702.79,211.81 704.78,212.20 C705.63,212.36 706.41,213.40 706.50,214.50 C706.59,215.60 706.99,217.49 707.38,218.70 C707.89,220.26 707.51,221.49 706.05,222.95 C704.92,224.08 704.00,225.91 704.00,227.02 C704.00,228.27 703.03,229.42 701.49,230.00 C698.26,231.23 696.23,235.37 697.88,237.35 C698.80,238.47 698.69,238.90 697.35,239.42 C695.87,239.99 695.96,240.28 698.07,241.76 C699.40,242.69 701.37,243.59 702.45,243.75 C703.54,243.92 705.81,244.87 707.50,245.87 C709.19,246.86 715.95,249.37 722.54,251.43 L 722.65 251.47 C694.54,243.10 663.83,239.88 641.00,243.43 C634.65,244.42 632.19,244.47 631.28,243.62 C630.12,242.55 625.54,234.52 603.47,194.91 C598.39,185.79 593.05,176.46 591.61,174.18 C590.18,171.90 589.00,169.62 589.00,169.11 C589.00,166.09 644.55,165.56 667.41,168.35 C691.17,171.25 719.24,177.81 737.50,184.72 C762.39,194.14 784.64,206.07 804.23,220.47 ZM 814.75 326.21 L 814.75 326.21 C804.27,326.01 789.68,326.00 768.65,326.00 L 707.43 326.00 L 705.60 329.10 C704.59,330.80 702.31,332.81 700.53,333.55 C698.75,334.30 695.89,336.50 694.17,338.45 C691.42,341.59 691.13,342.49 691.65,346.23 C691.98,348.56 693.31,352.04 694.62,353.96 C695.17,354.77 695.68,355.61 696.08,356.36 C695.48,355.31 694.62,354.03 693.67,352.79 C689.59,347.44 678.00,327.75 678.00,326.16 C678.00,325.29 696.44,325.00 751.25,325.02 C819.89,325.03 825.08,325.15 833.69,326.97 C834.33,327.11 834.96,327.25 835.59,327.40 C830.90,326.66 824.67,326.33 814.75,326.21 ZM 843.90 257.20 C836.34,248.78 825.44,238.10 816.83,230.39 C826.61,238.63 835.64,247.57 843.90,257.20 ZM 878.49 363.10 C875.47,354.98 870.53,347.83 863.78,341.84 C869.55,346.86 874.12,352.76 876.93,359.11 C877.50,360.39 878.02,361.72 878.49,363.10 ZM 376.67 531.38 C380.06,539.36 383.55,546.31 385.26,547.73 C384.92,547.58 384.63,547.23 384.24,546.75 C382.53,544.63 379.59,538.43 376.67,531.38 ZM 772.21 274.06 C782.62,280.36 791.37,286.55 799.23,293.12 C791.98,287.05 782.19,280.21 772.21,274.06 ZM 410.08 441.49 C401.81,453.17 394.12,463.96 391.70,467.27 C391.42,467.65 391.15,468.03 390.87,468.40 C393.85,464.19 397.20,459.50 400.93,454.28 C403.90,450.13 406.98,445.82 410.08,441.49 ZM 876.37 306.10 C871.59,296.70 865.89,287.00 859.87,278.05 C865.38,286.14 870.45,294.63 875.07,303.52 C875.49,304.33 875.93,305.19 876.37,306.10 ZM 881.97 381.61 C882.21,387.02 881.78,392.24 880.61,396.63 C881.36,393.81 881.98,387.88 881.99,383.46 C881.99,382.84 881.98,382.22 881.97,381.61 ZM 888.00 334.10 C888.00,333.62 886.48,329.28 884.58,324.35 C886.59,329.25 888.00,333.13 888.00,334.10 ZM 366.76 373.74 C364.71,382.38 362.86,391.56 361.51,399.95 C362.96,390.86 364.68,382.24 366.76,373.74 ZM 368.03 504.75 C368.20,502.97 369.63,499.93 373.22,494.22 C370.01,499.46 368.21,503.10 368.03,504.75 ZM 667.10 356.99 C666.51,355.95 665.81,354.74 665.04,353.42 L 665.09 353.50 C665.89,354.78 666.66,356.06 667.31,357.18 C667.24,357.11 667.17,357.05 667.10,356.99 ZM 599.31 361.96 L 607.74 362.08 L 599.34 362.00 ZM 391.94 543.67 C389.39,545.65 387.88,546.82 386.88,547.39 C388.02,546.63 389.91,545.25 391.94,543.67 ZM 377.56 442.77 C385.69,431.62 395.66,418.00 399.71,412.50 C400.66,411.21 401.60,409.92 402.54,408.65 C401.41,410.19 400.46,411.48 399.71,412.50 C395.67,418.00 385.69,431.62 377.56,442.77 ZM 669.18 360.76 C669.11,360.62 669.00,360.41 668.86,360.14 C668.84,360.04 668.81,359.93 668.78,359.83 C668.99,360.24 669.13,360.54 669.17,360.70 C669.18,360.72 669.18,360.74 669.18,360.76 ZM 368.01 505.12 C368.01,505.04 368.02,504.96 368.02,504.88 C368.02,504.92 368.02,504.96 368.02,505.00 C368.02,505.37 368.06,505.81 368.13,506.31 C368.06,505.84 368.02,505.44 368.01,505.12 Z" fill="rgb(103,62,181)"/>
<path d="M 0.00 418.00 L 0.00 0.00 L 627.50 0.00 L 1255.00 0.00 L 1255.00 418.00 L 1255.00 836.00 L 627.50 836.00 L 0.00 836.00 L 0.00 418.00 ZM 663.50 667.53 C718.07,660.14 763.55,641.88 804.00,611.13 C813.78,603.69 839.99,577.82 848.19,567.50 C873.91,535.15 890.20,496.24 895.93,453.50 C896.82,446.87 898.96,416.97 898.99,410.75 C899.00,409.79 898.55,409.00 898.00,409.00 C897.45,409.00 897.00,409.65 897.00,410.44 C897.00,411.23 894.87,416.07 892.27,421.19 C885.85,433.81 873.28,446.70 861.47,452.75 C852.71,457.25 842.06,460.55 833.08,461.57 L 827.34 462.22 L 821.94 473.82 C816.82,484.83 803.08,507.03 799.61,509.91 C798.73,510.64 798.00,511.66 798.00,512.17 C798.00,514.97 771.57,539.46 757.50,549.69 C730.15,569.58 694.16,583.60 655.00,589.62 C638.48,592.17 598.81,592.18 583.50,589.65 C556.29,585.16 533.17,578.14 514.27,568.64 C509.19,566.09 504.64,564.00 504.16,564.00 C502.64,564.00 488.73,575.45 483.99,580.60 C473.78,591.68 464.10,606.29 460.08,616.70 L 458.06 621.91 L 460.78 623.80 C466.75,627.95 484.18,637.23 495.64,642.38 C530.06,657.83 561.71,665.65 605.00,669.40 C614.94,670.26 652.13,669.07 663.50,667.53 ZM 441.88 601.44 C459.16,564.51 497.97,534.92 544.78,523.00 C558.30,519.55 534.76,519.30 508.50,522.61 C475.63,526.74 447.16,536.76 422.12,553.01 C411.13,560.14 400.03,569.00 400.01,570.67 C399.98,573.29 435.33,607.87 438.16,607.98 C438.52,607.99 440.19,605.05 441.88,601.44 ZM 391.94 543.67 C416.20,524.78 444.80,512.61 479.50,506.40 C501.93,502.38 511.15,502.02 591.62,502.01 L 669.75 502.00 L 670.18 487.75 C670.41,479.91 670.41,471.53 670.18,469.11 L 669.76 464.73 L 580.45 465.46 C494.15,466.16 475.55,465.86 476.24,463.78 C476.42,463.24 481.05,456.33 486.53,448.43 L 496.50 434.07 L 583.00 433.79 L 669.50 433.50 L 669.77 415.25 L 670.05 397.00 L 607.27 396.87 C572.75,396.80 539.63,396.47 533.69,396.12 L 522.87 395.50 L 539.08 372.50 C548.00,359.85 559.16,344.02 563.90,337.32 C568.63,330.63 572.98,324.36 573.56,323.40 C574.50,321.86 574.94,322.19 577.17,326.07 C580.03,331.07 591.67,350.05 596.29,357.25 L 599.34 362.00 L 617.92 362.18 C652.16,362.52 669.53,362.02 669.17,360.70 C668.99,360.04 667.16,356.80 665.09,353.50 C660.14,345.60 644.66,318.84 629.22,291.50 C597.00,234.45 589.90,221.77 584.73,212.00 C578.81,200.82 574.69,189.04 572.77,177.87 C571.40,169.89 571.89,170.08 559.79,173.01 C538.91,178.06 525.42,183.16 503.64,194.24 C452.41,220.29 404.62,272.13 382.87,325.23 C371.84,352.15 365.48,374.56 361.34,401.05 C360.03,409.44 359.54,418.39 359.53,434.50 C359.51,455.87 360.23,464.60 361.93,463.54 C362.39,463.26 369.42,453.91 377.56,442.77 C385.69,431.62 395.67,418.00 399.71,412.50 C407.61,401.78 438.08,359.90 459.37,330.50 C466.55,320.60 480.13,301.92 489.56,289.00 C498.99,276.08 511.20,259.20 516.71,251.50 C522.21,243.80 533.64,227.80 542.11,215.95 C550.57,204.10 558.83,192.29 560.45,189.70 C562.07,187.12 563.71,185.00 564.09,185.00 C566.15,185.00 568.00,193.65 568.00,203.30 C568.00,217.47 566.65,221.71 558.45,233.38 C554.63,238.81 550.20,245.11 548.61,247.38 C542.76,255.70 480.63,342.46 473.68,352.00 C462.99,366.68 456.94,375.41 456.91,376.20 C456.90,376.59 455.68,378.21 454.20,379.81 C452.71,381.40 449.22,386.04 446.44,390.10 C441.63,397.13 419.22,428.74 400.93,454.28 C374.81,490.78 367.99,501.30 368.01,505.12 C368.05,510.83 379.99,541.48 384.24,546.75 C385.66,548.52 385.76,548.48 391.94,543.67 ZM 740.50 469.72 L 740.50 437.95 L 787.50 437.65 C839.82,437.32 839.73,437.33 853.50,430.20 C866.05,423.71 877.01,410.13 880.61,396.63 C883.45,385.95 881.93,370.42 876.93,359.11 C870.14,343.76 853.05,331.06 833.69,326.97 C825.08,325.15 819.89,325.03 751.25,325.02 C696.44,325.00 678.00,325.29 678.00,326.16 C678.00,327.75 689.59,347.44 693.67,352.79 C695.50,355.19 697.00,357.74 697.00,358.45 C697.00,359.17 697.56,360.22 698.25,360.79 C699.06,361.46 722.00,362.05 763.98,362.46 C827.93,363.10 828.50,363.12 832.44,365.30 C838.11,368.43 841.00,373.15 841.00,379.25 C841.00,385.76 838.78,390.19 833.76,393.67 L 829.67 396.50 L 761.84 396.78 L 694.00 397.05 L 694.00 448.86 C694.00,477.35 694.31,500.97 694.68,501.35 C695.06,501.73 705.52,501.92 717.93,501.77 L 740.50 501.50 L 740.50 469.72 ZM 888.00 334.10 C888.00,331.83 880.24,313.48 875.07,303.52 C846.38,248.27 800.33,208.50 737.50,184.72 C719.24,177.81 691.17,171.25 667.41,168.35 C644.55,165.56 589.00,166.09 589.00,169.11 C589.00,169.62 590.18,171.90 591.61,174.18 C593.05,176.46 598.39,185.79 603.47,194.91 C625.54,234.52 630.12,242.55 631.28,243.62 C632.19,244.47 634.65,244.42 641.00,243.43 C670.10,238.90 712.00,245.38 744.99,259.50 C761.09,266.39 785.01,281.22 799.23,293.12 L 805.95 298.76 L 818.73 299.49 C825.75,299.89 834.69,301.03 838.59,302.03 C853.83,305.91 868.02,314.70 879.62,327.41 C886.21,334.64 888.00,336.07 888.00,334.10 Z" fill="rgb(254,254,254)"/>
</g>
</svg>